<svg id="visual" viewBox="0 0 900 600" width="900" height="600" xmlns="http://www.w3.org/2000/svg" xmlns:xlink="http://www.w3.org/1999/xlink" version="1.1"><rect x="0" y="0" width="900" height="600" fill="#002233"></rect><path d="M0 488L15 497.3C30 506.7 60 525.3 90 523.5C120 521.7 150 499.3 180 494.2C210 489 240 501 270 513.5C300 526 330 539 360 541.3C390 543.7 420 535.3 450 526C480 516.7 510 506.3 540 507.3C570 508.3 600 520.7 630 525.2C660 529.7 690 526.3 720 527.3C750 528.3 780 533.7 810 527.2C840 520.7 870 502.3 885 493.2L900 484L900 601L885 601C870 601 840 601 810 601C780 601 750 601 720 601C690 601 660 601 630 601C600 601 570 601 540 601C510 601 480 601 450 601C420 601 390 601 360 601C330 601 300 601 270 601C240 601 210 601 180 601C150 601 120 601 90 601C60 601 30 601 15 601L0 601Z" fill="#0066FF" stroke-linecap="round" stroke-linejoin="miter"></path></svg>