<svg id="visual" viewBox="0 0 900 600" width="900" height="600"
    xmlns="http://www.w3.org/2000/svg"
    xmlns:xlink="http://www.w3.org/1999/xlink" version="1.1">
    <!-- <rect x="0" y="0" width="900" height="600" fill="#002233"></rect> -->
    <path d="M502 600L519.8 590C537.7 580 573.3 560 579.3 540C585.3 520 561.7 500 572.8 480C584 460 630 440 647.2 420C664.3 400 652.7 380 643 360C633.3 340 625.7 320 628.5 300C631.3 280 644.7 260 632.8 240C621 220 584 200 598.7 180C613.3 160 679.7 140 707.3 120C735 100 724 80 716 60C708 40 703 20 700.5 10L698 0L900 0L900 10C900 20 900 40 900 60C900 80 900 100 900 120C900 140 900 160 900 180C900 200 900 220 900 240C900 260 900 280 900 300C900 320 900 340 900 360C900 380 900 400 900 420C900 440 900 460 900 480C900 500 900 520 900 540C900 560 900 580 900 590L900 600Z" fill="#0066FF" stroke-linecap="round" stroke-linejoin="miter"></path>
</svg>