<svg id="visual" viewBox="0 0 900 600" width="900" height="600" xmlns="http://www.w3.org/2000/svg" xmlns:xlink="http://www.w3.org/1999/xlink" version="1.1"><rect x="0" y="0" width="900" height="600" fill="#fff"></rect><defs><linearGradient id="grad1_0" x1="33.3%" y1="100%" x2="100%" y2="0%"><stop offset="20%" stop-color="#ffffff" stop-opacity="1"></stop><stop offset="80%" stop-color="#ffffff" stop-opacity="1"></stop></linearGradient></defs><defs><linearGradient id="grad2_0" x1="0%" y1="100%" x2="66.7%" y2="0%"><stop offset="20%" stop-color="#ffffff" stop-opacity="1"></stop><stop offset="80%" stop-color="#ffffff" stop-opacity="1"></stop></linearGradient></defs><g transform="translate(900, 600)"><path d="M-486.7 0C-472.5 -66.6 -458.3 -133.3 -418.5 -173.4C-378.8 -213.4 -313.6 -227 -275.8 -275.8C-238 -324.6 -227.7 -408.7 -186.3 -449.7C-144.9 -490.7 -72.4 -488.7 0 -486.7L0 0Z" fill="#edcdae"></path></g><g transform="translate(0, 0)"><path d="M486.7 0C472 66.4 457.3 132.9 417.6 173C377.9 213.1 313.3 226.9 275.8 275.8C238.2 324.7 227.7 408.7 186.3 449.7C144.8 490.7 72.4 488.7 0 486.7L0 0Z" fill="#edcdae"></path></g></svg>